# AST/ASF file generated using VICON BodyLanguage
# -----------------------------------------------
:version 1.10
:name VICON
:units
  mass 1.0
  length 0.45
  angle deg
:documentation
   .ast/.asf automatically generated from VICON data using
   VICON BodyBuilder and BodyLanguage model FoxedUp or BRILLIANT.MOD
:root
   order TX TY TZ RX RY RZ
   axis XYZ
   position 0 0 0  
   orientation 0 0 0 
:bonedata
  begin
     id 1 
     name lhipjoint
     direction 0.603808 -0.713975 0.35448 
     length 2.2025 
     axis 0 0 0  XYZ
  end
  begin
     id 2 
     name lfemur
     direction 0.34202 -0.939693 0  
     length 6.55877  
     axis 0 0 20  XYZ
    dof rx ry rz
    limits (-160.0 20.0)
           (-70.0 70.0)
           (-60.0 70.0)
  end
  begin
     id 3 
     name ltibia
     direction 0.34202 -0.939693 0   
     length 6.80302   
     axis 0 0 20   XYZ
    dof rx
    limits (-10.0 170.0)
  end
  begin
     id 4 
     name lfoot
     direction 0.091848 -0.25235 0.963267   
     length 2.03446   
     axis -90 7.62852e-016 20   XYZ
    dof rx rz
    limits (-45.0 90.0)
           (-70.0 20.0)
  end
  begin
     id 5 
     name ltoes
     direction 1.53608e-011 -4.21925e-011 1   
     length 1.02033   
     axis -90 7.62852e-016 20   XYZ
    dof rx
    limits (-90.0 20.0)
  end
  begin
     id 6 
     name rhipjoint
     direction -0.587285 -0.724947 0.359928   
     length 2.16916  
     axis 0 0 0  XYZ 
  end
  begin
     id 7 
     name rfemur
     direction -0.34202 -0.939693 0   
     length 6.43173   
     axis 0 0 -20   XYZ
    dof rx ry rz
    limits (-160.0 20.0)
           (-70.0 70.0)
           (-70.0 60.0)
  end
  begin
     id 8 
     name rtibia
     direction -0.34202 -0.939693 0   
     length 6.70662   
     axis 0 0 -20   XYZ
    dof rx
    limits (-10.0 170.0)
 end
 begin
     id 9 
     name rfoot
     direction -0.11854 -0.325686 0.938018   
     length 2.0773  
     axis -90 -7.62852e-016 -20   XYZ
    dof rx rz
    limits (-45.0 90.0)
           (-20.0 70.0)
  end
  begin
     id 10 
     name rtoes
     direction -1.53547e-011 -4.21838e-011 1   
     length 1.03267   
     axis -90 -7.62852e-016 -20   XYZ
    dof rx
    limits (-90.0 20.0)
  end
  begin
     id 11 
     name lowerback
     direction -0.0286554 0.999539 0.0100613   
     length 2.08751   
     axis 0 0 0   XYZ
    dof rx ry rz
    limits (-20.0 45.0)
           (-30.0 30.0)
           (-30.0 30.0)
  end
  begin
     id 12 
     name upperback
     direction 0.0227093 0.999705 -0.00860929   
     length 2.08517   
     axis 0 0 0   XYZ
    dof rx ry rz
    limits (-20.0 45.0)
           (-30.0 30.0)
           (-30.0 30.0)
  end
  begin
     id 13 
     name thorax
     direction 0.0351627 0.999285 -0.013892   
     length 2.08412   
     axis 0 0 0   XYZ
    dof rx ry rz
    limits (-20.0 45.0)
           (-30.0 30.0)
           (-30.0 30.0)
  end
  begin
     id 14 
     name lowerneck
     direction -0.0696283 0.997344 0.0213922   
     length 1.44164   
     axis 0 0 0   XYZ
    dof rx ry rz
    limits (-20.0 45.0)
           (-30.0 30.0)
           (-30.0 30.0)
  end
  begin
     id 15 
     name upperneck
     direction 0.0531 0.990412 -0.127531   
     length 1.45022   
     axis 0 0 0   XYZ
    dof rx ry rz
    limits (-20.0 45.0)
           (-30.0 30.0)
           (-30.0 30.0)
  end
  begin
     id 16
     name head
     direction 0.0188154 0.998548 -0.0504727  
     length 1.45845  
     axis 0 0 0   XYZ
    dof rx ry rz
    limits (-20.0 45.0)
           (-30.0 30.0)
           (-30.0 30.0)
  end
  begin
     id 17 
     name lclavicle
     direction 0.961559 0.260051 0.088188  
     length 2.86057  
     axis 0 0 0   XYZ
    dof ry rz
    limits (-20.0 10.0)
           (0.0 20.0)
  end
  begin
     id 18 
     name lhumerus
     direction 1 -4.48959e-011 2.88185e-027   
     length 4.36901   
     axis 180 -30 -90   XYZ
    dof rx ry rz
    limits (-60.0 90.0)
           (-90.0 90.0)
           (-90.0 90.0)
  end
  begin
     id 19
     name lradius
     direction 1 -4.48965e-011 -3.92618e-028   
     length 3.21737   
     axis 180 -30 -90   XYZ
    dof rx
    limits (-10.0 170.0)
  end
  begin
     id 20
     name lwrist
     direction 1 -4.49037e-011 2.57246e-027   
     length 1.60869   
     axis -1.61769e-015 90 90   XYZ
    dof ry
    limits (-180.0 0.0)
 end
  begin
     id 21 
     name lhand
     direction 1 -4.48807e-011 5.12958e-027   
     length 0.564313   
     axis -3.27988e-015 90 90   XYZ
    dof rx rz
    limits (-90.0 90.0)
           (-45.0 45.0)
  end
  begin
     id 22 
     name lfingers
     direction 1 -4.48879e-011 1.02687e-026   
     length 0.454963   
     axis -6.5598e-015 90 90   XYZ
    dof rx
    limits (0.0 90.0)
  end
  begin
     id 23
     name lthumb
     direction 0.707107 -6.3475e-011 0.707107   
     length 0.653239   
     axis -90 45 2.19363e-014   XYZ
    dof rx rz
    limits (-45.0 45.0)
           (-45.0 45.0)
  end
  begin
     id 24 
     name rclavicle
     direction -0.954677 0.253915 0.155304   
     length 3.11497  
     axis 0 0 0   XYZ 
    dof ry rz
    limits (-10.0 20.0)
           (-20.0 0.0)
  end
  begin
     id 25 
     name rhumerus
     direction -1 -4.48958e-011 -8.20169e-028  
     length 4.34118   
     axis 180 30 90   XYZ
    dof rx ry rz
    limits (-90.0 60.0)
           (-90.0 90.0)
           (-90.0 90.0)
  end
  begin
     id 26 
     name rradius
     direction -1 -4.48978e-011 1.5676e-027   
     length 3.09531   
     axis 180 30 90   XYZ
    dof rx
    limits (-10.0 170.0)
  end
  begin
     id 27 
     name rwrist
     direction -1 -4.49001e-011 2.57123e-027   
     length 1.54765   
     axis -1.61769e-015 -90 -90   XYZ
    dof ry
    limits (-180.0 0.0)
  end
  begin
     id 28
     name rhand
     direction -1 -4.48847e-011 5.13225e-027   
     length 0.597446   
     axis -3.27988e-015 -90 -90   XYZ
    dof rx rz
    limits (-90.0 90.0)
           (-45.0 45.0)
  end
  begin
     id 29
     name rfingers
     direction -1 -4.49094e-011 1.02974e-026   
     length 0.481677   
     axis -6.5598e-015 -90 -90   XYZ
    dof rx
    limits (0.0 90.0)
  end
  begin
     id 30
     name rthumb
     direction -0.707107 -6.34859e-011 0.707107   
     length 0.691594   
     axis -90 -45 -2.19363e-014   XYZ
    dof rx rz
    limits (-45.0 45.0)
           (-45.0 45.0)
  end
:hierarchy
  begin
    root lhipjoint rhipjoint lowerback
    lhipjoint lfemur
    lfemur ltibia
    ltibia lfoot
    lfoot ltoes
    rhipjoint rfemur
    rfemur rtibia
    rtibia rfoot
    rfoot rtoes
    lowerback upperback
    upperback thorax
    thorax lowerneck lclavicle rclavicle
    lowerneck upperneck
    upperneck head
    lclavicle lhumerus
    lhumerus lradius
    lradius lwrist
    lwrist lhand lthumb
    lhand lfingers
    rclavicle rhumerus
    rhumerus rradius
    rradius rwrist
    rwrist rhand rthumb
    rhand rfingers
  end

#!OML:ASF I:\Acrobat_Osman\acrobat\cartwheel_test 2\Patient 1\Session 1\acrobat.ASF
:FULLY-SPECIFIED
:DEGREES
634
root 6.82809 6.33654 -8.32841 -8.08267 2.4871 0.216293
lowerback 23.6166 0.888832 -2.34698
upperback 2.2432 0.764767 1.78436
thorax -10.7863 0.515019 3.09393
lowerneck -9.75834 -5.3951 -7.49947
upperneck 5.92153 -6.73524 6.03176
head 3.81075 -3.21846 2.61885
rclavicle 7.7526e-015 -2.0276e-014
rhumerus 26.5207 -13.7737 -44.3401
rradius 25.773
rwrist 12.1743
rhand -21.7082 32.4782
rfingers 7.12502
rthumb 4.69051 2.55009
lclavicle 7.7526e-015 -2.0276e-014
lhumerus 22.2986 -2.40361 37.6948
lradius 29.2768
lwrist 25.8733
lhand -16.661 50.1535
lfingers 7.12502
lthumb 9.56242 439.916
rfemur -21.5582 -84.1141 -71.9983
rtibia 150.893
rfoot -17.9401 66.7507
rtoes -19.182
lfemur -113.791 96.9529 -18.9153
ltibia 150.502
lfoot -50.6642 -60.5782
ltoes -21.7247
635
root 6.82728 6.45008 -8.30405 -8.30819 2.45807 0.206099
lowerback 23.3691 0.89154 -2.40182
upperback 2.13372 0.764284 1.83027
thorax -10.7778 0.520007 3.17684
lowerneck -9.55974 -5.30283 -7.54483
upperneck 6.5055 -6.63941 6.00089
head 3.95025 -3.17723 2.62281
rclavicle 1.44119e-015 -3.57812e-015
rhumerus 29.3042 -12.6163 -42.6776
rradius 26.4114
rwrist 11.0861
rhand -21.7487 32.4642
rfingers 7.12502
rthumb 4.65143 2.53526
lclavicle 1.44119e-015 -3.57812e-015
lhumerus 25.369 -2.47296 35.1423
lradius 30.1924
lwrist 26.5278
lhand -17.1781 49.8741
lfingers 7.12502
lthumb 9.06349 439.659
rfemur -32.33 -82.7148 -59.3685
rtibia 150.362
rfoot -23.1382 64.1304
rtoes -21.4839
lfemur -121.912 96.6396 -28.6639
ltibia 150.038
lfoot -50.9399 -58.376
ltoes -22.1008
636
root 6.82109 6.63444 -8.27858 -8.67424 2.54162 0.318166
lowerback 23.2853 0.934008 -2.57253
upperback 2.09826 0.777567 1.8279
thorax -10.7758 0.534661 3.26831
lowerneck -9.32855 -5.21651 -7.5525
upperneck 6.97479 -6.5616 6.04489
head 4.05207 -3.14093 2.64455
rclavicle 2.73329e-015 0
rhumerus 31.9486 -11.8392 -40.7411
rradius 27.119
rwrist 9.81256
rhand -22.1482 33.3079
rfingers 7.12502
rthumb 4.26567 3.37084
lclavicle 2.73329e-015 0
lhumerus 28.5378 -2.38977 32.3599
lradius 31.1729
lwrist 27.2588
lhand -17.8606 49.7609
lfingers 7.12502
lthumb 8.4049 439.574
rfemur -37.379 -80.8394 -51.648
rtibia 149.283
rfoot -25.7164 61.5401
rtoes -21.7208
lfemur -133.25 96.4679 -42.9332
ltibia 148.929
lfoot -50.7176 -56.3034
ltoes -21.5182
637
root 6.81637 6.76586 -8.24591 -9.03273 2.69785 0.546098
lowerback 23.1551 1.0001 -2.8099
upperback 2.04377 0.794203 1.7221
thorax -10.7696 0.551384 3.28116
lowerneck -9.17049 -5.25185 -7.40081
upperneck 7.75639 -6.67146 6.03982
head 4.26709 -3.19337 2.60765
rclavicle 1.44119e-014 -7.95139e-015
rhumerus 34.5367 -11.7801 -39.0534
rradius 27.7408
rwrist 9.07815
rhand -22.5526 34.3611
rfingers 7.12502
rthumb 3.87511 4.4166
lclavicle 1.44119e-014 -7.95139e-015
lhumerus 31.8273 -2.10577 29.4163
lradius 32.0991
lwrist 27.9572
lhand -18.0837 49.496
lfingers 7.12502
lthumb 8.18953 439.317
rfemur -37.9952 -79.0796 -49.3808
rtibia 148.592
rfoot -27.3806 59.6043
rtoes -21.2687
lfemur -149.453 96.394 -61.3254
ltibia 148.164
lfoot -50.8189 -54.2846
ltoes -22.0384
638
root 6.81347 6.89767 -8.20921 -9.41694 2.87229 0.820802
lowerback 23.069 0.984541 -3.20973
upperback 1.85532 0.669921 1.69287
thorax -10.9306 0.517528 3.52012
lowerneck -8.81031 -5.22688 -7.4358
upperneck 8.91253 -6.69139 5.90889
head 4.55959 -3.21692 2.57054
rclavicle 6.90777e-015 -1.11319e-014
rhumerus 37.4987 -12.0009 -37.9324
rradius 28.2989
rwrist 9.60595
rhand -22.4132 33.9945
rfingers 7.12502
rthumb 4.0098 4.05253
lclavicle 6.90777e-015 -1.11319e-014
lhumerus 34.5749 -1.27219 26.6842
lradius 32.8541
lwrist 27.9274
lhand -17.9416 48.8181
lfingers 7.12502
lthumb 8.32665 438.634
rfemur -36.2846 -77.4886 -49.4744
rtibia 147.938
rfoot -30.4519 57.3288
rtoes -22.0865
lfemur -165.86 96.9533 -79.9441
ltibia 147.333
lfoot -50.9816 -52.2599
ltoes -22.6786
639
root 6.80907 7.03222 -8.16715 -9.89364 3.00873 0.957756
lowerback 23.1369 0.950934 -3.55427
upperback 1.56804 0.541815 1.7613
thorax -11.2876 0.489749 3.841
lowerneck -8.16867 -5.11255 -7.53188
upperneck 10.1672 -6.5902 5.6551
head 4.826 -3.19645 2.5212
rclavicle 1.28962e-014 -1.47101e-014
rhumerus 40.315 -11.945 -36.4462
rradius 28.9252
rwrist 9.86208
rhand -22.2859 33.291
rfingers 7.12502
rthumb 4.13273 3.3513
lclavicle 1.28962e-014 -1.47101e-014
lhumerus 36.86 -0.458623 23.6593
lradius 33.8146
lwrist 28.2194
lhand -18.3965 48.3438
lfingers 7.12502
lthumb 7.88768 438.177
rfemur -35.3439 -75.6482 -48.5111
rtibia 147.193
rfoot -32.8433 55.0417
rtoes -23.091
lfemur -179.166 98.1553 -95.1938
ltibia 146.466
lfoot -51.9267 -49.6743
ltoes -25.0162
640
root 6.80427 7.1664 -8.11908 -10.3616 3.09377 1.08856
lowerback 23.1659 0.960389 -3.86067
upperback 1.36706 0.475562 1.78819
thorax -11.5298 0.485432 4.07288
lowerneck -7.79712 -5.0393 -7.491
upperneck 11.4878 -6.53587 5.35748
head 5.15643 -3.19355 2.42667
rclavicle -3.926e-015 -1.98785e-015
rhumerus 43.0083 -11.9916 -34.5741
rradius 29.5656
rwrist 9.11092
rhand -22.5924 33.0171
rfingers 7.12502
rthumb 3.83667 3.07194
lclavicle -3.926e-015 -1.98785e-015
lhumerus 39.2038 0.643857 20.4585
lradius 34.7585
lwrist 28.6715
lhand -18.8778 47.9374
lfingers 7.12502
lthumb 7.4231 437.787
rfemur -36.3638 -73.4684 -45.695
rtibia 146.321
rfoot -33.5529 53.2298
rtoes -23.9415
lfemur -190.229 100.014 -108.116
ltibia 145.266
lfoot -49.4099 -51.2892
ltoes -21.4784
641
root 6.80057 7.2961 -8.06875 -10.7517 3.09865 1.34798
lowerback 23.1384 0.97359 -4.15598
upperback 1.27889 0.401879 1.67394
thorax -11.6095 0.466875 4.13939
lowerneck -7.85304 -4.99727 -7.31248
upperneck 12.8106 -6.51494 5.11741
head 5.56166 -3.19128 2.31587
rclavicle -7.7526e-015 8.34896e-015
rhumerus 45.9728 -12.8754 -33.3243
rradius 30.2293
rwrist 8.40162
rhand -22.2129 32.7615
rfingers 7.12502
rthumb 4.20315 2.82324
lclavicle -7.7526e-015 8.34896e-015
lhumerus 41.705 2.74656 17.8923
lradius 35.42
lwrist 28.4397
lhand -18.729 47.378
lfingers 7.12502
lthumb 7.56669 437.223
rfemur -38.3895 -71.1087 -42.3051
rtibia 145.386
rfoot -32.9205 52.1099
rtoes -24.4091
lfemur -197.613 102.072 -117.378
ltibia 144.095
lfoot -47.7281 -52.0419
ltoes -20.4013
642
root 6.79767 7.41294 -8.01324 -11.1592 3.12121 1.58385
lowerback 23.4531 0.842621 -4.74919
upperback 0.30947 0.0613699 1.79328
thorax -12.8711 0.407405 4.75229
lowerneck -4.70889 -4.53908 -7.73455
upperneck 13.5079 -6.05618 4.838
head 5.21859 -3.05753 2.40027
rclavicle -5.51006e-015 1.47101e-014
rhumerus 48.1716 -12.0361 -31.2658
rradius 31.3804
rwrist 6.97391
rhand -21.7864 32.3919
rfingers 7.12502
rthumb 4.61506 2.46215
lclavicle -5.51006e-015 1.47101e-014
lhumerus 42.6996 3.90591 15.6895
lradius 36.331
lwrist 28.8947
lhand -18.9156 47.08
lfingers 7.12502
lthumb 7.38662 436.931
rfemur -38.854 -68.9456 -40.6699
rtibia 144.457
rfoot -32.056 51.6967
rtoes -24.4785
lfemur -202.537 104.294 -123.941
ltibia 142.956
lfoot -45.6791 -53.2119
ltoes -19.0613
643
root 6.79542 7.51603 -7.95049 -11.5429 3.19604 1.65623
lowerback 23.3892 0.820984 -4.80929
upperback 0.529565 0.0110841 1.70664
thorax -12.5731 0.369674 4.6997
lowerneck -6.60481 -4.68003 -7.34512
upperneck 15.6182 -6.15709 4.40771
head 6.18551 -3.09506 2.14261
rclavicle -1.46293e-015 1.23246e-014
rhumerus 50.8276 -13.4814 -28.7259
rradius 32.3329
rwrist 4.82778
rhand -22.6922 32.0724
rfingers 7.12502
rthumb 3.74034 2.1255
lclavicle -1.46293e-015 1.23246e-014
lhumerus 45.4501 7.70139 14.3106
lradius 36.7879
lwrist 28.918
lhand -19.3015 46.7969
lfingers 7.12502
lthumb 7.01416 436.661
rfemur -38.3044 -67.0556 -40.055
rtibia 143.598
rfoot -31.3635 51.5781
rtoes -24.8523
lfemur -204.861 106.358 -127.432
ltibia 141.931
lfoot -44.717 -54.0194
ltoes -18.9971
